# xmcd
#
# Track frame offsets:
#	150
#	14184
#	33006
#	48134
#	66992
#	85128
#	105500
#	119693
#	142242
#	162853
#	177810
#	194390
#	211783
#	228593
#	242580
#	253389
#	265068
#	278329
#
# Disc length: 4000 seconds
#
# Revision: 2
# Processed by: cddbd v1.5.2PL0 Copyright (c) Steve Scherf et al.
# Submitted via: audiograbber 1.83.01
#
DISCID=fd0f9e12
DTITLE=Rozni - Polskie Country vol.2
DYEAR=2007
DGENRE=Country
TTITLE0=Krzysztof Gablonski - Nie byle jak
TTITLE1=Whiskey River - Bialy dom i sw. Jan
TTITLE2=Kolt - Czerwony woz
TTITLE3=Pawel Baczkowski - Jade na slask
TTITLE4=Johny Walker - Los kierowcy
TTITLE5=Magda Aniol - Kochaj
TTITLE6=Coach - Damy mojego serca
TTITLE7=Colorado Band - 4 na 5
TTITLE8=Mariusz Kalaga - Moje drzewo i park
TTITLE9=Lonstar - Legenda europejskiego cowboya
TTITLE10=Cezary Makiewicz - Pani Marysia
TTITLE11=Zayazd - Costerina
TTITLE12=Full Service - Bo Ty dobrze wiesz
TTITLE13=Tomasz Szwed - Cieple piwo i zimne kobiety
TTITLE14=Harvest Time - Down South Jukin'
TTITLE15=Johny Walker - Amarillo by Morning
TTITLE16=Band - Mary Danced with Solidiers - T
TTITLE17=Colorado Band - Taka mala stacja
EXTD=YEAR: 2007
EXTT0=
EXTT1=
EXTT2=
EXTT3=
EXTT4=
EXTT5=
EXTT6=
EXTT7=
EXTT8=
EXTT9=
EXTT10=
EXTT11=
EXTT12=
EXTT13=
EXTT14=
EXTT15=
EXTT16=
EXTT17=
PLAYORDER=
